<mxfile host="app.diagrams.net" modified="2021-12-28T15:04:29.089Z" agent="5.0 (Windows NT 10.0; Win64; x64) AppleWebKit/537.36 (KHTML, like Gecko) Chrome/96.0.4664.110 Safari/537.36" etag="YKfH_TGipYmXpd1zpo7x" version="16.1.0" type="github">
  <diagram id="iqIwR1_r77Mx683xlR7X" name="Page-1">
    <mxGraphModel dx="781" dy="1057" grid="1" gridSize="10" guides="1" tooltips="1" connect="1" arrows="1" fold="1" page="1" pageScale="1" pageWidth="827" pageHeight="1169" math="0" shadow="0">
      <root>
        <mxCell id="0" />
        <mxCell id="1" parent="0" />
        <mxCell id="VgobgFAFkFvEPYgb2Gzc-1" value="储户" style="whiteSpace=wrap;html=1;aspect=fixed;" vertex="1" parent="1">
          <mxGeometry x="120" y="300" width="80" height="80" as="geometry" />
        </mxCell>
        <mxCell id="VgobgFAFkFvEPYgb2Gzc-13" style="edgeStyle=orthogonalEdgeStyle;rounded=0;orthogonalLoop=1;jettySize=auto;html=1;exitX=0.5;exitY=1;exitDx=0;exitDy=0;entryX=0.5;entryY=0;entryDx=0;entryDy=0;" edge="1" parent="1" source="VgobgFAFkFvEPYgb2Gzc-3" target="VgobgFAFkFvEPYgb2Gzc-10">
          <mxGeometry relative="1" as="geometry" />
        </mxCell>
        <mxCell id="VgobgFAFkFvEPYgb2Gzc-27" style="edgeStyle=orthogonalEdgeStyle;rounded=0;orthogonalLoop=1;jettySize=auto;html=1;exitX=1;exitY=0.5;exitDx=0;exitDy=0;entryX=0;entryY=0.5;entryDx=0;entryDy=0;" edge="1" parent="1" source="VgobgFAFkFvEPYgb2Gzc-3" target="VgobgFAFkFvEPYgb2Gzc-24">
          <mxGeometry relative="1" as="geometry" />
        </mxCell>
        <mxCell id="VgobgFAFkFvEPYgb2Gzc-3" value="记录存款信息" style="rounded=1;whiteSpace=wrap;html=1;" vertex="1" parent="1">
          <mxGeometry x="300" y="140" width="100" height="110" as="geometry" />
        </mxCell>
        <mxCell id="VgobgFAFkFvEPYgb2Gzc-5" value="" style="endArrow=none;html=1;rounded=0;exitX=0;exitY=0.25;exitDx=0;exitDy=0;entryX=1;entryY=0.25;entryDx=0;entryDy=0;" edge="1" parent="1" source="VgobgFAFkFvEPYgb2Gzc-3" target="VgobgFAFkFvEPYgb2Gzc-3">
          <mxGeometry width="50" height="50" relative="1" as="geometry">
            <mxPoint x="310" y="310" as="sourcePoint" />
            <mxPoint x="360" y="260" as="targetPoint" />
          </mxGeometry>
        </mxCell>
        <mxCell id="VgobgFAFkFvEPYgb2Gzc-6" value="1" style="text;html=1;align=center;verticalAlign=middle;resizable=0;points=[];autosize=1;strokeColor=none;fillColor=none;" vertex="1" parent="1">
          <mxGeometry x="340" y="150" width="20" height="20" as="geometry" />
        </mxCell>
        <mxCell id="VgobgFAFkFvEPYgb2Gzc-9" value="" style="endArrow=classic;html=1;rounded=0;exitX=1;exitY=0;exitDx=0;exitDy=0;entryX=0;entryY=0.75;entryDx=0;entryDy=0;" edge="1" parent="1" source="VgobgFAFkFvEPYgb2Gzc-1" target="VgobgFAFkFvEPYgb2Gzc-3">
          <mxGeometry width="50" height="50" relative="1" as="geometry">
            <mxPoint x="330" y="370" as="sourcePoint" />
            <mxPoint x="380" y="320" as="targetPoint" />
          </mxGeometry>
        </mxCell>
        <mxCell id="VgobgFAFkFvEPYgb2Gzc-17" style="edgeStyle=orthogonalEdgeStyle;rounded=0;orthogonalLoop=1;jettySize=auto;html=1;exitX=0.5;exitY=1;exitDx=0;exitDy=0;entryX=0.5;entryY=0;entryDx=0;entryDy=0;" edge="1" parent="1" source="VgobgFAFkFvEPYgb2Gzc-10" target="VgobgFAFkFvEPYgb2Gzc-14">
          <mxGeometry relative="1" as="geometry" />
        </mxCell>
        <mxCell id="VgobgFAFkFvEPYgb2Gzc-10" value="D1" style="html=1;dashed=0;whitespace=wrap;shape=mxgraph.dfd.dataStoreID;align=left;spacingLeft=3;points=[[0,0],[0.5,0],[1,0],[0,0.5],[1,0.5],[0,1],[0.5,1],[1,1]];" vertex="1" parent="1">
          <mxGeometry x="300" y="300" width="100" height="30" as="geometry" />
        </mxCell>
        <mxCell id="VgobgFAFkFvEPYgb2Gzc-11" value="存款信息" style="text;html=1;align=center;verticalAlign=middle;resizable=0;points=[];autosize=1;strokeColor=none;fillColor=none;" vertex="1" parent="1">
          <mxGeometry x="336" y="305" width="60" height="20" as="geometry" />
        </mxCell>
        <mxCell id="VgobgFAFkFvEPYgb2Gzc-39" style="edgeStyle=orthogonalEdgeStyle;rounded=0;orthogonalLoop=1;jettySize=auto;html=1;exitX=1;exitY=0.5;exitDx=0;exitDy=0;entryX=0;entryY=0.5;entryDx=0;entryDy=0;" edge="1" parent="1" source="VgobgFAFkFvEPYgb2Gzc-14" target="VgobgFAFkFvEPYgb2Gzc-36">
          <mxGeometry relative="1" as="geometry" />
        </mxCell>
        <mxCell id="VgobgFAFkFvEPYgb2Gzc-14" value="核对密码" style="rounded=1;whiteSpace=wrap;html=1;" vertex="1" parent="1">
          <mxGeometry x="300" y="370" width="100" height="110" as="geometry" />
        </mxCell>
        <mxCell id="VgobgFAFkFvEPYgb2Gzc-15" value="" style="endArrow=none;html=1;rounded=0;exitX=0;exitY=0.25;exitDx=0;exitDy=0;entryX=1;entryY=0.25;entryDx=0;entryDy=0;" edge="1" parent="1" source="VgobgFAFkFvEPYgb2Gzc-14" target="VgobgFAFkFvEPYgb2Gzc-14">
          <mxGeometry width="50" height="50" relative="1" as="geometry">
            <mxPoint x="310" y="510" as="sourcePoint" />
            <mxPoint x="360" y="460" as="targetPoint" />
          </mxGeometry>
        </mxCell>
        <mxCell id="VgobgFAFkFvEPYgb2Gzc-16" value="3" style="text;html=1;align=center;verticalAlign=middle;resizable=0;points=[];autosize=1;strokeColor=none;fillColor=none;" vertex="1" parent="1">
          <mxGeometry x="340" y="380" width="20" height="20" as="geometry" />
        </mxCell>
        <mxCell id="VgobgFAFkFvEPYgb2Gzc-18" value="存款信息" style="text;html=1;align=center;verticalAlign=middle;resizable=0;points=[];autosize=1;strokeColor=none;fillColor=none;" vertex="1" parent="1">
          <mxGeometry x="360" y="260" width="60" height="20" as="geometry" />
        </mxCell>
        <mxCell id="VgobgFAFkFvEPYgb2Gzc-20" value="存款信息" style="text;html=1;align=center;verticalAlign=middle;resizable=0;points=[];autosize=1;strokeColor=none;fillColor=none;" vertex="1" parent="1">
          <mxGeometry x="360" y="340" width="60" height="20" as="geometry" />
        </mxCell>
        <mxCell id="VgobgFAFkFvEPYgb2Gzc-21" value="" style="endArrow=classic;html=1;rounded=0;exitX=1;exitY=1;exitDx=0;exitDy=0;entryX=0;entryY=0.364;entryDx=0;entryDy=0;entryPerimeter=0;" edge="1" parent="1" source="VgobgFAFkFvEPYgb2Gzc-1" target="VgobgFAFkFvEPYgb2Gzc-14">
          <mxGeometry width="50" height="50" relative="1" as="geometry">
            <mxPoint x="280" y="540" as="sourcePoint" />
            <mxPoint x="330" y="490" as="targetPoint" />
          </mxGeometry>
        </mxCell>
        <mxCell id="VgobgFAFkFvEPYgb2Gzc-22" value="取款单" style="text;html=1;align=center;verticalAlign=middle;resizable=0;points=[];autosize=1;strokeColor=none;fillColor=none;" vertex="1" parent="1">
          <mxGeometry x="220" y="410" width="50" height="20" as="geometry" />
        </mxCell>
        <mxCell id="VgobgFAFkFvEPYgb2Gzc-31" style="edgeStyle=orthogonalEdgeStyle;rounded=0;orthogonalLoop=1;jettySize=auto;html=1;exitX=1;exitY=0.5;exitDx=0;exitDy=0;entryX=0;entryY=0.5;entryDx=0;entryDy=0;" edge="1" parent="1" source="VgobgFAFkFvEPYgb2Gzc-24" target="VgobgFAFkFvEPYgb2Gzc-30">
          <mxGeometry relative="1" as="geometry" />
        </mxCell>
        <mxCell id="VgobgFAFkFvEPYgb2Gzc-24" value="打印存款存单" style="rounded=1;whiteSpace=wrap;html=1;" vertex="1" parent="1">
          <mxGeometry x="510" y="140" width="100" height="110" as="geometry" />
        </mxCell>
        <mxCell id="VgobgFAFkFvEPYgb2Gzc-25" value="" style="endArrow=none;html=1;rounded=0;exitX=0;exitY=0.25;exitDx=0;exitDy=0;entryX=1;entryY=0.25;entryDx=0;entryDy=0;" edge="1" parent="1" source="VgobgFAFkFvEPYgb2Gzc-24" target="VgobgFAFkFvEPYgb2Gzc-24">
          <mxGeometry width="50" height="50" relative="1" as="geometry">
            <mxPoint x="520" y="310" as="sourcePoint" />
            <mxPoint x="570" y="260" as="targetPoint" />
          </mxGeometry>
        </mxCell>
        <mxCell id="VgobgFAFkFvEPYgb2Gzc-26" value="2" style="text;html=1;align=center;verticalAlign=middle;resizable=0;points=[];autosize=1;strokeColor=none;fillColor=none;" vertex="1" parent="1">
          <mxGeometry x="550" y="150" width="20" height="20" as="geometry" />
        </mxCell>
        <mxCell id="VgobgFAFkFvEPYgb2Gzc-28" value="存款信息" style="text;html=1;align=center;verticalAlign=middle;resizable=0;points=[];autosize=1;strokeColor=none;fillColor=none;" vertex="1" parent="1">
          <mxGeometry x="420" y="170" width="60" height="20" as="geometry" />
        </mxCell>
        <mxCell id="VgobgFAFkFvEPYgb2Gzc-30" value="储户" style="whiteSpace=wrap;html=1;aspect=fixed;" vertex="1" parent="1">
          <mxGeometry x="720" y="155" width="80" height="80" as="geometry" />
        </mxCell>
        <mxCell id="VgobgFAFkFvEPYgb2Gzc-45" style="edgeStyle=orthogonalEdgeStyle;rounded=0;orthogonalLoop=1;jettySize=auto;html=1;exitX=0.5;exitY=0;exitDx=0;exitDy=0;entryX=0.5;entryY=1;entryDx=0;entryDy=0;" edge="1" parent="1" source="VgobgFAFkFvEPYgb2Gzc-33" target="VgobgFAFkFvEPYgb2Gzc-30">
          <mxGeometry relative="1" as="geometry" />
        </mxCell>
        <mxCell id="VgobgFAFkFvEPYgb2Gzc-33" value="核对密码" style="rounded=1;whiteSpace=wrap;html=1;" vertex="1" parent="1">
          <mxGeometry x="710" y="370" width="100" height="110" as="geometry" />
        </mxCell>
        <mxCell id="VgobgFAFkFvEPYgb2Gzc-34" value="" style="endArrow=none;html=1;rounded=0;exitX=0;exitY=0.25;exitDx=0;exitDy=0;entryX=1;entryY=0.25;entryDx=0;entryDy=0;" edge="1" parent="1" source="VgobgFAFkFvEPYgb2Gzc-33" target="VgobgFAFkFvEPYgb2Gzc-33">
          <mxGeometry width="50" height="50" relative="1" as="geometry">
            <mxPoint x="320" y="520" as="sourcePoint" />
            <mxPoint x="370" y="470" as="targetPoint" />
          </mxGeometry>
        </mxCell>
        <mxCell id="VgobgFAFkFvEPYgb2Gzc-40" style="edgeStyle=orthogonalEdgeStyle;rounded=0;orthogonalLoop=1;jettySize=auto;html=1;exitX=1;exitY=0.5;exitDx=0;exitDy=0;entryX=0;entryY=0.5;entryDx=0;entryDy=0;" edge="1" parent="1" source="VgobgFAFkFvEPYgb2Gzc-36" target="VgobgFAFkFvEPYgb2Gzc-33">
          <mxGeometry relative="1" as="geometry" />
        </mxCell>
        <mxCell id="VgobgFAFkFvEPYgb2Gzc-36" value="核对密码" style="rounded=1;whiteSpace=wrap;html=1;" vertex="1" parent="1">
          <mxGeometry x="510" y="370" width="100" height="110" as="geometry" />
        </mxCell>
        <mxCell id="VgobgFAFkFvEPYgb2Gzc-37" value="" style="endArrow=none;html=1;rounded=0;exitX=0;exitY=0.25;exitDx=0;exitDy=0;entryX=1;entryY=0.25;entryDx=0;entryDy=0;" edge="1" parent="1" source="VgobgFAFkFvEPYgb2Gzc-36" target="VgobgFAFkFvEPYgb2Gzc-36">
          <mxGeometry width="50" height="50" relative="1" as="geometry">
            <mxPoint x="520" y="505" as="sourcePoint" />
            <mxPoint x="570" y="455" as="targetPoint" />
          </mxGeometry>
        </mxCell>
        <mxCell id="VgobgFAFkFvEPYgb2Gzc-38" value="4" style="text;html=1;align=center;verticalAlign=middle;resizable=0;points=[];autosize=1;strokeColor=none;fillColor=none;" vertex="1" parent="1">
          <mxGeometry x="550" y="380" width="20" height="20" as="geometry" />
        </mxCell>
        <mxCell id="VgobgFAFkFvEPYgb2Gzc-41" value="存款信息" style="text;html=1;align=center;verticalAlign=middle;resizable=0;points=[];autosize=1;strokeColor=none;fillColor=none;" vertex="1" parent="1">
          <mxGeometry x="430" y="400" width="60" height="20" as="geometry" />
        </mxCell>
        <mxCell id="VgobgFAFkFvEPYgb2Gzc-42" value="利息值" style="text;html=1;align=center;verticalAlign=middle;resizable=0;points=[];autosize=1;strokeColor=none;fillColor=none;" vertex="1" parent="1">
          <mxGeometry x="640" y="400" width="50" height="20" as="geometry" />
        </mxCell>
        <mxCell id="VgobgFAFkFvEPYgb2Gzc-43" value="存款存单" style="text;html=1;align=center;verticalAlign=middle;resizable=0;points=[];autosize=1;strokeColor=none;fillColor=none;" vertex="1" parent="1">
          <mxGeometry x="635" y="170" width="60" height="20" as="geometry" />
        </mxCell>
        <mxCell id="VgobgFAFkFvEPYgb2Gzc-44" value="5" style="text;html=1;align=center;verticalAlign=middle;resizable=0;points=[];autosize=1;strokeColor=none;fillColor=none;" vertex="1" parent="1">
          <mxGeometry x="750" y="380" width="20" height="20" as="geometry" />
        </mxCell>
        <mxCell id="VgobgFAFkFvEPYgb2Gzc-46" value="利息清单" style="text;html=1;align=center;verticalAlign=middle;resizable=0;points=[];autosize=1;strokeColor=none;fillColor=none;" vertex="1" parent="1">
          <mxGeometry x="767" y="290" width="60" height="20" as="geometry" />
        </mxCell>
        <mxCell id="VgobgFAFkFvEPYgb2Gzc-47" value="MoHao" style="text;html=1;align=center;verticalAlign=middle;resizable=0;points=[];autosize=1;strokeColor=none;fillColor=none;fontSize=26;" vertex="1" parent="1">
          <mxGeometry x="20" y="100" width="100" height="40" as="geometry" />
        </mxCell>
      </root>
    </mxGraphModel>
  </diagram>
</mxfile>
